<?xml version="1.0" encoding="utf-8"?>
<!-- Generator: Adobe Illustrator 19.0.0, SVG Export Plug-In . SVG Version: 6.00 Build 0)  -->
<svg version="1.1" id="Layer_1" xmlns="http://www.w3.org/2000/svg" xmlns:xlink="http://www.w3.org/1999/xlink" x="0px" y="0px"
	 viewBox="0 0 16 16" style="enable-background:new 0 0 16 16;" xml:space="preserve">
<style type="text/css">
	.st0{fill-rule:evenodd;clip-rule:evenodd;fill:white;}
</style>
<path class="st0" d="M8,10.6L1.2,3.7C1,3.5,0.7,3.5,0.4,3.7L0.2,3.9C0,4.1,0,4.5,0.2,4.8l7.1,7.3c0,0,0,0,0,0l0.2,0.2
	c0.1,0.1,0.3,0.2,0.4,0.2c0.1,0,0.3-0.1,0.4-0.2l0.2-0.2c0,0,0,0,0,0l7.1-7.3c0.2-0.2,0.2-0.6,0-0.9l-0.2-0.2
	c-0.2-0.2-0.6-0.2-0.8,0L8,10.6z"/>
</svg>
