<?xml version="1.0" encoding="utf-8"?>
<!-- Generator: Adobe Illustrator 19.0.0, SVG Export Plug-In . SVG Version: 6.00 Build 0)  -->
<svg version="1.1" id="Layer_1" xmlns="http://www.w3.org/2000/svg" xmlns:xlink="http://www.w3.org/1999/xlink" x="0px" y="0px"
	 viewBox="99 -99 216 216" style="enable-background:new 99 -99 216 216;" xml:space="preserve">
<style type="text/css">
	.st0{fill:#508EB9;}
	.st1{fill:#FFFFFF;}
</style>
<circle class="st0" cx="207" cy="9" r="108"/>
<path class="st1" d="M259.5,69h-90c-4.1,0-7.5-3-7.5-6.7V15.6c0-3.7,3.4-6.7,7.5-6.7h90c4.1,0,7.5,3,7.5,6.7v46.7
	C267,66,263.6,69,259.5,69z M169.5,35.3c-2.1,0-3.8,1.7-3.8,3.8s1.7,3.8,3.8,3.8s3.8-1.7,3.8-3.8C173.3,36.9,171.6,35.3,169.5,35.3z
	 M252,16.5h-75v45h75V16.5z M259.5,25.7c0-0.9-0.8-1.7-1.9-1.7c-1,0-1.9,0.7-1.9,1.7v26.7c0,0.9,0.8,1.7,1.9,1.7
	c1,0,1.9-0.7,1.9-1.7V25.7z M199.5-36h-45v75h3.8v15h-4.6c-3.7,0-6.7-3.4-6.7-7.5v-90c0-4.1,3-7.5,6.7-7.5h46.7
	c3.7,0,6.7,3.4,6.7,7.5V5.2h-7.5V-36H199.5z M190.4-43.5h-26.7c-0.9,0-1.7,0.8-1.7,1.9c0,1,0.7,1.9,1.7,1.9h26.7
	c0.9,0,1.7-0.8,1.7-1.9C192.1-42.7,191.3-43.5,190.4-43.5z"/>
<path class="st1" d="M231.9-34.4c0.3-0.2,0.7-0.2,1-0.1l0,0c0.7,0.2,1.2,0.9,1,1.6L233-29c4.3,1.4,17.7,7.4,14.4,25.7
	c0,0.3-0.1,0.6-0.2,0.9c-0.1,0.2-0.1,0.4-0.1,0.6c-0.2,0.4-0.3,0.9-0.5,1.4c0-0.2,0-0.4,0-0.6c-0.1,0.2-0.1,0.3-0.2,0.5
	c0.1-3.2-0.6-6.2-1.8-9c-3-8.3-10.4-11.1-13.3-11.9l-0.9,3.8c-0.2,0.7-0.9,1.2-1.6,1c-0.1,0-0.1,0-0.1,0c-0.3-0.1-0.6-0.3-0.8-0.5
	l-9.7-10.6c-0.4-0.5-0.3-1,0.3-1.3L231.9-34.4z"/>
</svg>
